<svg version="1.1" id="Capa_1" xmlns="http://www.w3.org/2000/svg" xmlns:xlink="http://www.w3.org/1999/xlink" x="0px" y="0px"
	 viewBox="0 0 50 50" style="enable-background:new 0 0 50 50;" xml:space="preserve">
<style type="text/css">
	.st0{fill:url(#SVGID_1_);}
	.st1{fill:url(#SVGID_2_);}
	.st2{fill:url(#SVGID_3_);}
</style>
<g>
	
		<linearGradient id="SVGID_1_" gradientUnits="userSpaceOnUse" x1="-23.124" y1="0.0237" x2="6.9477" y2="0.0237" gradientTransform="matrix(-1.836970e-16 1 -1 -1.836970e-16 25.3987 24.124)">
		<stop  offset="0" style="stop-color:#DDBE5E"/>
		<stop  offset="0.1794" style="stop-color:#DCBB5D"/>
		<stop  offset="0.3593" style="stop-color:#D9B25B"/>
		<stop  offset="0.5395" style="stop-color:#D3A358"/>
		<stop  offset="0.7201" style="stop-color:#CC8F53"/>
		<stop  offset="0.8992" style="stop-color:#C3784D"/>
		<stop  offset="1" style="stop-color:#BE6749"/>
	</linearGradient>
	<path class="st0" d="M49,24.75c-9.75,2.12-19.43,4.22-29.11,6.33c-0.01-0.02-0.03-0.04-0.04-0.06c3.7-2.71,7.39-5.41,11.14-8.15
		C21.22,15.57,11.49,8.31,1.75,1.04C1.76,1.03,1.77,1.01,1.78,1C17.5,8.9,33.21,16.81,49,24.75z"/>
	
		<linearGradient id="SVGID_2_" gradientUnits="userSpaceOnUse" x1="-0.2485" y1="0.3343" x2="24.876" y2="0.3343" gradientTransform="matrix(-1.836970e-16 1 -1 -1.836970e-16 25.3987 24.124)">
		<stop  offset="0" style="stop-color:#DDBE5E"/>
		<stop  offset="0.1794" style="stop-color:#DCBB5D"/>
		<stop  offset="0.3593" style="stop-color:#D9B25B"/>
		<stop  offset="0.5395" style="stop-color:#D3A358"/>
		<stop  offset="0.7201" style="stop-color:#CC8F53"/>
		<stop  offset="0.8992" style="stop-color:#C3784D"/>
		<stop  offset="1" style="stop-color:#BE6749"/>
	</linearGradient>
	<path class="st1" d="M1.45,49c2.77-8.41,5.52-16.77,8.27-25.12c0.03,0,0.05,0,0.08,0c0.84,4.14,1.68,8.28,2.54,12.48
		c12.12-3.72,24.21-7.44,36.3-11.15c0.01,0.01,0.02,0.03,0.03,0.04C32.96,33.16,17.24,41.06,1.45,49z"/>
	
		<linearGradient id="SVGID_3_" gradientUnits="userSpaceOnUse" x1="-22.8791" y1="13.9757" x2="24.6153" y2="13.9757" gradientTransform="matrix(-1.836970e-16 1 -1 -1.836970e-16 25.3987 24.124)">
		<stop  offset="0" style="stop-color:#DDBE5E"/>
		<stop  offset="0.1794" style="stop-color:#DCBB5D"/>
		<stop  offset="0.3593" style="stop-color:#D9B25B"/>
		<stop  offset="0.5395" style="stop-color:#D3A358"/>
		<stop  offset="0.7201" style="stop-color:#CC8F53"/>
		<stop  offset="0.8992" style="stop-color:#C3784D"/>
		<stop  offset="1" style="stop-color:#BE6749"/>
	</linearGradient>
	<path class="st2" d="M1,1.24c6.98,6.29,13.91,12.55,20.85,18.8c-0.01,0.02-0.03,0.04-0.04,0.06c-4.54-1.44-9.08-2.87-13.68-4.33
		C5.77,26.79,3.41,37.76,1.06,48.74c-0.02,0-0.04,0-0.06,0C1,32.93,1,17.12,1,1.24z"/>
</g>
</svg>
